Coordinates
version=1
nRows=11
nColumns=40
inDegrees=yes

Units are S.I. units (second, meters, Newtons, ...)
Angles are in degrees.

endheader
time	pelvis_tilt	pelvis_list	pelvis_rotation	pelvis_tx	pelvis_ty	pelvis_tz	hip_flexion_r	hip_adduction_r	hip_rotation_r	knee_angle_r	knee_angle_r_beta	ankle_angle_r	subtalar_angle_r	mtp_angle_r	hip_flexion_l	hip_adduction_l	hip_rotation_l	knee_angle_l	knee_angle_l_beta	ankle_angle_l	subtalar_angle_l	mtp_angle_l	lumbar_extension	lumbar_bending	lumbar_rotation	arm_flex_r	arm_add_r	arm_rot_r	elbow_flex_r	pro_sup_r	wrist_flex_r	wrist_dev_r	arm_flex_l	arm_add_l	arm_rot_l	elbow_flex_l	pro_sup_l	wrist_flex_l	wrist_dev_l
      0.63000000	     -4.51474722	      6.61397750	      4.57760317	     -0.01918133	      0.92681720	      1.56967789	    -12.26655432	    -17.10811618	    -22.13774191	    -30.59121717	     -0.53391746	    -16.11975593	      6.98357291	     -9.13716632	     28.48595340	     -5.39031405	     11.30431154	    -22.24627306	     -0.38827071	     -4.54963865	      5.96039119	      0.78039333	      1.83705864	    -10.60757030	      6.54770827	      2.00243393	    -17.19159158	    -10.39957044	     48.42313654	     89.95437384	      0.00000000	      0.00000000	    -19.23520902	     15.83777273	      9.69372464	      2.38566616	     89.95437384	      0.00000000	      0.00000000
      0.64000000	     -5.29191589	      6.77200014	      4.91537045	     -0.00454634	      0.92721094	      1.56506996	     -9.71366050	    -17.72771733	    -20.78616798	    -33.94129615	     -0.59238737	    -19.57698640	      3.32501460	     -7.67060747	     28.73771266	     -6.31960228	      9.76314854	    -22.89033326	     -0.39951168	     -4.13481431	      7.92696397	      0.33325933	      2.84176535	    -10.74336930	      6.14236065	      1.21425804	    -16.71443468	    -10.98260462	     48.08763364	     89.95437384	      0.00000000	      0.00000000	    -19.26558728	     15.32719739	      8.43669957	      2.57993948	     89.95437384	      0.00000000	      0.00000000
      0.65000000	     -5.77206962	      7.05624275	      5.15061985	      0.01029368	      0.92801756	      1.56103205	     -7.40381766	    -18.40745916	    -19.38496842	    -37.44680533	     -0.65357005	    -21.95091876	      1.02576204	     -6.73897905	     28.50482362	     -7.20050902	      8.75052675	    -23.46693689	     -0.40957531	     -3.12677134	      9.35933467	     -0.07718127	      3.48785695	    -11.04042437	      5.71631919	      0.48579098	    -16.21241730	    -11.37298822	     47.73427233	     89.95437384	      0.00000000	      0.00000000	    -19.18688876	     14.88236436	      7.94537640	      2.80226016	     89.95437384	      0.00000000	      0.00000000
      0.66000000	     -6.10612339	      7.51333581	      5.31820011	      0.02493170	      0.92919924	      1.55719248	     -5.09702184	    -19.25488370	    -18.14893477	    -41.15102165	     -0.71822082	    -23.02526286	     -1.98332192	     -6.17896027	     27.93331992	     -8.23814102	      7.79196895	    -23.72103597	     -0.41401018	     -2.22118403	     10.67024823	     -0.33643483	      3.90983272	    -11.50643289	      5.28032671	     -0.11915817	    -15.72999643	    -11.55773138	     47.19079698	     89.95437384	      0.00000000	      0.00000000	    -18.96792867	     14.41154692	      7.84547140	      3.11901815	     89.95437384	      0.00000000	      0.00000000
      0.67000000	     -6.31184329	      8.02073147	      5.45935721	      0.03935878	      0.93068651	      1.55358789	     -2.80506077	    -20.20236522	    -17.38229910	    -44.84194351	     -0.78263956	    -23.05033861	     -5.69279337	     -5.60795245	     26.93329234	     -9.32032641	      6.79702131	    -23.44807245	     -0.40924607	     -1.32545412	     11.76570182	     -0.47033090	      4.13048494	    -12.03218418	      4.75786663	     -0.58189842	    -15.21244151	    -11.66081950	     46.44622300	     89.95437384	      0.00000000	      0.00000000	    -18.65590651	     13.94717887	      8.19118846	      3.59114677	     89.95437384	      0.00000000	      0.00000000
      0.68000000	     -6.31812129	      8.50200489	      5.56935262	      0.05363118	      0.93262534	      1.55018925	     -0.76817117	    -21.04779630	    -16.88833491	    -48.21225861	     -0.84146265	    -22.05077034	     -8.71235241	     -4.59658270	     25.61832593	    -10.23684641	      6.17498518	    -22.98836382	     -0.40122264	     -0.47354919	     12.47940443	     -0.46340414	      4.09335086	    -12.52568795	      4.13401203	     -0.89868556	    -14.70040572	    -11.63063664	     45.50026465	     89.95437384	      0.00000000	      0.00000000	    -18.25640105	     13.47221366	      8.98073231	      4.04994065	     89.95437384	      0.00000000	      0.00000000
      0.69000000	     -5.95635494	      8.70818122	      5.65621732	      0.06781328	      0.93541094	      1.54725230	      0.80312234	    -21.45041732	    -16.53237193	    -51.15971987	     -0.89290556	    -19.95036913	    -10.78309624	     -4.37944932	     23.88775613	    -10.67581820	      5.86903869	    -22.49566696	     -0.39262346	      0.41851127	     12.06645508	     -0.59221148	      3.61369411	    -12.66100138	      3.47557472	     -1.15278853	    -14.22536999	    -11.60764837	     44.42585365	     89.95437384	      0.00000000	      0.00000000	    -17.64613611	     12.99765896	      8.97083827	      4.63306260	     89.95437384	      0.00000000	      0.00000000
      0.70000000	     -5.98731705	      9.07271301	      5.40346759	      0.08134888	      0.93763053	      1.54473895	      3.24590270	    -22.02566290	    -15.65268620	    -54.16887266	     -0.94542518	    -17.84723499	    -13.33845194	     -3.26178525	     22.54884248	    -11.19321532	      5.89972912	    -21.70818328	     -0.37887927	      0.69041186	     12.41423807	     -0.40480666	      3.58352365	    -12.96828160	      3.19124642	     -1.39582138	    -13.71976973	    -11.73781357	     43.29332166	     89.95437384	      0.00000000	      0.00000000	    -17.08256073	     12.53128744	      9.02946510	      5.36874466	     89.95437384	      0.00000000	      0.00000000
      0.71000000	     -5.64108640	      8.92104079	      5.34113514	      0.09462957	      0.94051040	      1.54257081	      5.07753635	    -21.83689259	    -15.06395677	    -56.55557829	     -0.98708105	    -15.45860590	    -14.90191585	     -3.01968870	     20.91349505	    -11.12013787	      5.73409200	    -21.17076145	     -0.36949949	      1.43473622	     12.00682209	     -0.47217734	      3.06177314	    -12.72056845	      2.63531042	     -1.51790812	    -13.28080858	    -11.73793283	     41.94268404	     89.95437384	      0.00000000	      0.00000000	    -16.19743644	     12.08906505	      9.02537875	      6.02495257	     89.95437384	      0.00000000	      0.00000000
      0.72000000	     -5.73777816	      8.83899499	      4.90175310	      0.10749719	      0.94263087	      1.54108387	      7.92136316	    -21.64063402	    -13.83477748	    -59.23161539	     -1.03378671	    -10.50960290	    -15.85569620	     14.44750475	     19.79710348	    -10.98113506	      6.10751768	    -20.55933852	     -0.35882815	      2.17439715	     11.68567809	      1.31109275	      3.08058211	    -12.55287170	      2.44141458	     -1.63183452	    -12.77207220	    -11.91466672	     40.57254435	     89.95437384	      0.00000000	      0.00000000	    -15.32071391	     11.60769156	      9.81781044	      6.74130174	     89.95437384	      0.00000000	      0.00000000
      0.73000000	     -5.42631623	      8.61994880	      4.62369396	      0.12076440	      0.94525505	      1.53940686	      9.80535757	    -21.23548553	    -13.21707931	    -60.88011370	     -1.06255843	     -9.01357010	    -16.93904568	     14.09096666	     18.11128724	    -10.73425110	      6.18019564	    -19.80636540	     -0.34568629	      2.76716742	     11.16049036	      1.18426794	      2.65133364	    -12.20017868	      2.10350092	     -1.81029186	    -12.39003146	    -11.93804550	     39.18353352	     89.95437384	      0.00000000	      0.00000000	    -14.38075506	     11.24397142	      9.70820854	      7.49368047	     89.95437384	      0.00000000	      0.00000000
